<svg xmlns="http://www.w3.org/2000/svg" width="400" height="400" version="1" viewBox="0 0 400 400">
  <g fill="#6d6d6d">
    <path d="M0 199l28 1h372v-2H80z"/>
    <path d="M198 0l-1 200 1 152 1 48V200l1-200z"/>
    <path d="M198 0l-1 3-4 10 1-2 3-5 1-2 1-2-1-2z"/>
    <path d="M199 0v2l1 2 3 7 2 2-3-7-2-6h-1z"/>
    <path d="M400 199v-1l-4-2-4-1-3-1 5 3 3 1 2 1z"/>
    <path d="M400 199h-1l-2 1-2 1-6 2h3l4-1 4-2v-1z"/>
  </g>
  <path fill="#6d6d6d" d="M199 121c15 13 29 25 44 40l32 36 4 2-13-16-21-22c-14-15-29-29-45-43-1-1-3 2-1 3z"/>
  <path fill="#6d6d6d" d="M39 119l-1 5c-1 8-3 53-2 74l4 1v-62z"/>
  <path fill="#6d6d6d" d="M39 119l2 1 78-1 80 2 1-2-1-2h-80l-48 1z"/>
  <path fill="#6d6d6d" d="M199 359c-3-2-15-2-25-4-67-9-109-51-125-106-6-16-9-33-9-50 1-1-3-3-4-1 0 17 5 35 11 52 8 25 23 50 42 69 21 21 48 32 77 37z"/>
  <text x="100" y="190" fill="#6d6d6d">
    <tspan x="14" y="190" font-family="Neucha" font-size="17" font-weight="400">-R</tspan>
  </text>
  <text x="166" y="296" fill="#6d6d6d">
    <tspan x="209" y="360" font-family="Neucha" font-size="17" font-weight="400">R</tspan>
  </text>
  <text x="360" y="182" fill="#6d6d6d">
    <tspan x="209" y="117" font-family="Neucha" font-size="17" font-weight="400">R/2</tspan>
  </text>
  <text x="418" y="282" fill="#6d6d6d">
    <tspan x="267" y="217" font-family="Neucha" font-size="17" font-weight="400">R/2</tspan>
  </text>
  <g fill="#6d6d6d">
    <path d="M91 225l7 13c9 6 13 8 9 8-5-3-11-4-13-8l-6-10c-1-2 0-8 3-3z"/>
    <path d="M104 233l-5 6c-2 3-6 3-10 6-10 0 6-8 12-14l5-6c4-3-1 7-2 8z"/>
  </g>
</svg>
