<svg xmlns="http://www.w3.org/2000/svg" width="500" height="500" version="1" viewBox="0 0 500 500">
  <g fill="#f0f0f0">
    <path d="M376 128l2-1 45-52 42-52 2-4-3 3-44 50c-14 18-40 48-43 54l-1 2z"/>
    <path d="M368 29l1 2 22 20 30 25a2539 2539 0 0 0 51 42l4 1-3-2-21-19-29-24-30-26-22-18-3-1z"/>
    <path d="M401 58a191 191 0 0 1 30-5l9-1-9-1a74 74 0 0 0-31 3 2 2 0 0 0 1 4z"/>
    <path d="M363 99l-1 1c0 2 7 7 11 10l7 6 4 3a3 3 0 0 0 4-4l-5-4-7-5-6-5-5-4-2 2z"/>
    <path d="M366 101a4437 4437 0 0 1 36-43v-4h-4a1040 1040 0 0 0-36 43 3 3 0 0 0 4 4z"/>
    <path d="M465 110a59 59 0 0 1-22 15 54 54 0 0 1-21 3 58 58 0 0 1-27-8l-7-5a3 3 0 0 0-4 4 52 52 0 0 0 16 10 64 64 0 0 0 29 4c5 0 10-2 16-5a55 55 0 0 0 20-18z"/>
  </g>
  <g fill="#f0f0f0">
    <path d="M463 306l-2-2c-8-5-56-25-84-37s-71-31-83-34l-5-1 5 3c10 6 54 24 81 36 28 12 77 32 85 34l3 1z"/>
    <path d="M340 355l3-3 16-35 21-48a3388 3388 0 0 0 33-82v-5l-2 4-15 34-20 47-21 48-15 36v4z"/>
    <path d="M364 301a256 256 0 0 1-18-36v-1l-4-11 1 12a99 99 0 0 0 16 39 3 3 0 0 0 5-3z"/>
    <path d="M431 333c1 0 2 2 3 1 2-1 6-12 8-17l4-11 3-7a4 4 0 0 0-7-3l-3 7-4 11-4 10c-2 4-3 7-2 8l2 1z"/>
    <path d="M433 329a5922 5922 0 0 1-70-30l-5 2 2 5a1388 1388 0 0 0 70 30 4 4 0 0 0 3-7z"/>
    <path d="M406 199a79 79 0 0 1 27 22 73 73 0 0 1 12 26 77 77 0 0 1 1 38l-4 11a4 4 0 0 0 7 3 69 69 0 0 0 6-25 86 86 0 0 0-6-38c-2-6-6-12-13-18a73 73 0 0 0-30-19z"/>
  </g>
  <g fill="#f0f0f0">
    <path d="M45 333l4-1c12-4 82-41 122-62l117-64 6-5-8 2c-16 6-79 40-118 61-40 21-110 58-120 66l-3 3z"/>
    <path d="M103 143l1 7 25 51 37 70a5066 5066 0 0 0 64 116l5 5-2-7-25-49-36-68-37-70-27-50-5-5z"/>
    <path d="M143 223a382 382 0 0 1 59 13h1l17 6-16-9a148 148 0 0 0-60-19 4 4 0 0 0-1 9z"/>
    <path d="M43 270l-4 2c-1 4 8 19 12 26l9 16 6 10a6 6 0 0 0 9-6l-5-10-9-15-8-15c-2-5-5-9-7-10l-3 2z"/>
    <path d="M46 276a8856 8856 0 0 1 100-53l2-7-7-2a2075 2075 0 0 0-100 53 6 6 0 0 0 5 9z"/>
    <path d="M223 367a118 118 0 0 1-51 11 109 109 0 0 1-42-10 115 115 0 0 1-45-35l-10-15a6 6 0 0 0-9 5 103 103 0 0 0 23 31 128 128 0 0 0 50 29 110 110 0 0 0 84-16z"/>
  </g>
  <g fill="#f0f0f0">
    <path d="M111 89h2c8 0 56-7 84-11l81-12 4-2h-4c-11 0-54 6-82 10l-83 13-2 2z"/>
    <path d="M184-9v4l3 35 7 48a3114 3114 0 0 0 13 80l2 5v-5l-4-34-7-47-7-48-5-34-2-4z"/>
    <path d="M191 45a235 235 0 0 1 31 20l1 1 8 6-7-8a91 91 0 0 0-31-23 3 3 0 0 0-2 4z"/>
    <path d="M123 52h-3c-1 2 1 12 2 18l2 11 1 7a3 3 0 0 0 7-2l-2-7-1-10-2-10-2-8-2 1z"/>
    <path d="M124 56a5443 5443 0 0 1 68-10l3-3-4-3a1276 1276 0 0 0-68 9 3 3 0 0 0 1 7z"/>
    <path d="M207 146a73 73 0 0 1-32-5 67 67 0 0 1-22-15 71 71 0 0 1-19-29l-2-11a3 3 0 0 0-7 1 63 63 0 0 0 7 23 79 79 0 0 0 23 27c4 3 11 6 18 8a67 67 0 0 0 34 1z"/>
  </g>
  <g fill="#f0f0f0">
    <path d="M269 422h2l60-14 57-15 3-2h-3l-58 14c-20 5-54 13-60 16l-1 1z"/>
    <path d="M315 346v3l5 25 8 34a2272 2272 0 0 0 16 57l1 3v-3l-6-24-8-34-8-34-7-25-1-2z"/>
    <path d="M324 384a171 171 0 0 1 24 12v1l7 4-6-6a66 66 0 0 0-24-14 2 2 0 0 0-1 3z"/>
    <path d="M275 394l-2 1c-1 1 1 8 2 12l3 8 1 5a2 2 0 0 0 5-1l-2-5-2-8-1-7-2-5h-2z"/>
    <path d="M276 397a3970 3970 0 0 1 49-12l2-3-3-2a931 931 0 0 0-50 12 2 2 0 0 0 2 5z"/>
    <path d="M343 456a53 53 0 0 1-24-1 49 49 0 0 1-17-9 52 52 0 0 1-16-20l-2-7a2 2 0 0 0-5 1 46 46 0 0 0 7 15 58 58 0 0 0 18 18l14 5a49 49 0 0 0 25-2z"/>
  </g>
</svg>
